<svg width="82" height="16" viewBox="0 0 82 16" fill="none" xmlns="http://www.w3.org/2000/svg">
<path d="M7.04393 0C7.74295 0 8.3882 0.0537705 8.97967 0.215082C9.57115 0.322623 10.0551 0.537705 10.4852 0.806557C10.9154 1.07541 11.238 1.4518 11.4531 1.93574C11.6682 2.41967 11.7757 3.01115 11.7757 3.65639C11.7757 4.40918 11.6144 5.05443 11.238 5.53836C10.9154 6.0223 10.3777 6.45246 9.73246 6.77508C10.6466 7.04393 11.3456 7.52787 11.7757 8.17311C12.2059 8.81836 12.4748 9.62492 12.4748 10.539C12.4748 11.2918 12.3134 11.937 12.0446 12.4748C11.7757 13.0125 11.3456 13.4964 10.8616 13.819C10.3777 14.1416 9.78623 14.4105 9.14098 14.5718C8.49574 14.7331 7.85049 14.8407 7.20524 14.8407H-1.90735e-06V0H7.04393ZM6.61377 6.0223C7.20524 6.0223 7.68918 5.86098 8.06557 5.59213C8.44197 5.32328 8.60328 4.83934 8.60328 4.24787C8.60328 3.92525 8.54951 3.60262 8.44197 3.38754C8.33442 3.17246 8.17311 3.01115 7.95803 2.84984C7.74295 2.7423 7.52787 2.63475 7.25902 2.58098C6.99016 2.52721 6.72131 2.52721 6.39869 2.52721H3.28V6.0223H6.61377ZM6.77508 12.3672C7.0977 12.3672 7.42033 12.3134 7.68918 12.2597C7.95803 12.2059 8.22688 12.0984 8.44197 11.937C8.65705 11.7757 8.81836 11.6144 8.97967 11.3456C9.08721 11.0767 9.19475 10.7541 9.19475 10.3777C9.19475 9.62492 8.97967 9.08721 8.54951 8.71082C8.11934 8.3882 7.52787 8.22689 6.82885 8.22689H3.28V12.3672H6.77508ZM17.1528 12.3134C17.5829 12.7436 18.2282 12.9587 19.0885 12.9587C19.68 12.9587 20.2177 12.7974 20.6479 12.5285C21.078 12.2059 21.3469 11.8833 21.4544 11.5607H24.0892C23.659 12.8511 23.0138 13.7652 22.1534 14.3567C21.2931 14.8944 20.2715 15.217 19.0348 15.217C18.1744 15.217 17.4216 15.0557 16.7226 14.7869C16.0236 14.518 15.4859 14.1416 15.002 13.6039C14.518 13.12 14.1416 12.5285 13.9266 11.8295C13.6577 11.1305 13.5502 10.3777 13.5502 9.51738C13.5502 8.71082 13.6577 7.95803 13.9266 7.25902C14.1954 6.56 14.5718 5.96852 15.0557 5.43082C15.5397 4.94689 16.1311 4.51672 16.7764 4.24787C17.4754 3.97902 18.1744 3.81771 19.0348 3.81771C19.9489 3.81771 20.7554 3.97902 21.4544 4.35541C22.1534 4.7318 22.6911 5.16197 23.1213 5.80721C23.5515 6.39869 23.8741 7.09771 24.0892 7.85049C24.1967 8.60328 24.2505 9.35607 24.1967 10.2164H16.4C16.4 11.0767 16.7226 11.8833 17.1528 12.3134ZM20.5403 6.66754C20.1639 6.29115 19.5725 6.07607 18.8734 6.07607C18.3895 6.07607 18.0131 6.18361 17.6905 6.34492C17.3679 6.50623 17.1528 6.72131 16.9377 6.93639C16.7226 7.15148 16.6151 7.42033 16.5613 7.68918C16.5075 7.95803 16.4538 8.17312 16.4538 8.3882H21.2931C21.1856 7.58164 20.9167 7.04393 20.5403 6.66754ZM28.3908 0V5.59213H28.4446C28.821 4.94689 29.3049 4.51672 29.8964 4.24787C30.4879 3.97902 31.0256 3.81771 31.617 3.81771C32.4236 3.81771 33.0689 3.92525 33.5528 4.14033C34.0367 4.35541 34.4669 4.67803 34.7357 5.05443C35.0046 5.43082 35.2197 5.91475 35.3272 6.45246C35.4348 6.99016 35.4885 7.58164 35.4885 8.28066V14.8944H32.5311V8.81836C32.5311 7.90426 32.3698 7.25902 32.101 6.82885C31.8321 6.39869 31.3482 6.18361 30.6492 6.18361C29.8426 6.18361 29.2511 6.45246 28.9285 6.88262C28.5521 7.36656 28.3908 8.17312 28.3908 9.24853V14.8944H25.4334V0H28.3908ZM37.6393 5.69967C37.962 5.21574 38.3384 4.89312 38.8223 4.57049C39.3062 4.30164 39.8439 4.08656 40.4354 3.97902C41.0269 3.87148 41.6184 3.81771 42.2098 3.81771C42.7475 3.81771 43.2852 3.87148 43.8767 3.92525C44.4144 3.97902 44.9521 4.14033 45.3823 4.35541C45.8662 4.57049 46.1889 4.89312 46.5115 5.26951C46.7803 5.6459 46.9416 6.18361 46.9416 6.82885V12.4748C46.9416 12.9587 46.9954 13.4426 47.0492 13.8728C47.103 14.303 47.2643 14.6793 47.4256 14.8944H44.4144C44.3069 14.7869 44.2531 14.5718 44.1993 14.4105C44.1456 14.2492 44.1456 14.0341 44.1456 13.8728C43.6616 14.3567 43.1239 14.6793 42.4787 14.8944C41.8334 15.1095 41.1882 15.1633 40.543 15.1633C40.0052 15.1633 39.5751 15.1095 39.0911 14.9482C38.661 14.8407 38.2846 14.6256 37.9082 14.3567C37.5856 14.0879 37.3167 13.7652 37.1016 13.3351C36.9403 12.9049 36.8328 12.4748 36.8328 11.8833C36.8328 11.2918 36.9403 10.7541 37.1554 10.3777C37.3705 10.0013 37.6393 9.67869 37.962 9.40984C38.2846 9.19475 38.7148 8.97967 39.1449 8.87213C39.5751 8.76459 40.0052 8.65705 40.4892 8.60328L41.7797 8.44197C42.2098 8.3882 42.5862 8.33443 42.9089 8.28066C43.2315 8.17311 43.5003 8.06557 43.7154 7.90426C43.9305 7.74295 43.9843 7.52787 43.9843 7.20525C43.9843 6.88262 43.9305 6.61377 43.823 6.45246C43.7154 6.29115 43.5541 6.12984 43.3928 6.0223C43.2315 5.91475 43.0164 5.86098 42.8013 5.80721C42.5862 5.75344 42.3174 5.75344 42.0485 5.75344C41.457 5.75344 41.0269 5.86098 40.7043 6.12984C40.3816 6.39869 40.1666 6.82885 40.1128 7.36656H37.1554C37.1554 6.72131 37.3705 6.12984 37.6393 5.69967ZM43.5003 9.89377C43.339 9.94754 43.1239 10.0013 42.9089 10.0551C42.6938 10.1089 42.4787 10.1089 42.2098 10.1626C41.9948 10.2164 41.7259 10.2164 41.5108 10.2702L40.8656 10.4315C40.6505 10.4852 40.4354 10.5928 40.3279 10.7003C40.1666 10.8079 40.059 10.9692 39.9515 11.1305C39.7902 11.3456 39.7902 11.5607 39.7902 11.8295C39.7902 12.0984 39.8439 12.3134 39.9515 12.4748C40.059 12.6361 40.1666 12.7974 40.3279 12.9049C40.4892 13.0125 40.7043 13.0662 40.9193 13.12C41.1344 13.1738 41.3495 13.1738 41.6184 13.1738C42.2098 13.1738 42.64 13.0662 42.9626 12.9049C43.2852 12.6898 43.5003 12.4748 43.6616 12.2059C43.823 11.937 43.9305 11.6682 43.9305 11.3993C43.9843 11.1305 43.9843 10.9154 43.9843 10.7541V9.62492C43.823 9.73246 43.6616 9.84 43.5003 9.89377ZM51.4046 4.08656V5.59213H51.4584C51.8348 4.94689 52.3187 4.51672 52.9102 4.24787C53.5016 3.97902 54.1469 3.81771 54.7384 3.81771C55.5449 3.81771 56.1902 3.92525 56.6741 4.14033C57.2118 4.35541 57.5882 4.67803 57.857 5.05443C58.1259 5.43082 58.341 5.91475 58.5023 6.45246C58.6098 6.99016 58.6636 7.58164 58.6636 8.28066V14.8944H55.7062V8.81836C55.7062 7.90426 55.5449 7.25902 55.2761 6.82885C55.0072 6.39869 54.5233 6.12984 53.7705 6.12984C52.9639 6.12984 52.3725 6.45246 51.9961 6.93639C51.6197 7.42033 51.4584 8.22688 51.4584 9.30229V14.9482H48.501V4.08656H51.4046ZM65.2774 6.0223C64.7934 6.0223 64.4171 6.12984 64.0944 6.34492C63.7718 6.56 63.503 6.82885 63.2879 7.20525C63.0728 7.52787 62.9652 7.90426 62.8577 8.33443C62.7502 8.76459 62.7502 9.14098 62.7502 9.57115C62.7502 9.94754 62.8039 10.3777 62.8577 10.7541C62.9652 11.1843 63.0728 11.5069 63.2879 11.8295C63.503 12.1521 63.718 12.421 64.0407 12.6361C64.3633 12.8511 64.7397 12.9587 65.2236 12.9587C65.9226 12.9587 66.4603 12.7436 66.8905 12.3672C67.2669 11.9908 67.5357 11.4531 67.5895 10.7541H70.4393C70.2243 12.2059 69.6866 13.2813 68.7725 14.0341C67.8584 14.7869 66.6754 15.1633 65.2236 15.1633C64.4171 15.1633 63.6643 15.002 63.019 14.7331C62.32 14.4643 61.7823 14.0879 61.2984 13.6039C60.8144 13.12 60.438 12.5285 60.1692 11.8833C59.9003 11.1843 59.7928 10.4852 59.7928 9.67869C59.7928 8.81836 59.9003 8.06557 60.1692 7.36656C60.438 6.66754 60.7607 6.0223 61.2446 5.48459C61.7285 4.94689 62.32 4.57049 62.9652 4.24787C63.6643 3.97902 64.4171 3.81771 65.2774 3.81771C65.9226 3.81771 66.5141 3.92525 67.1056 4.08656C67.6971 4.24787 68.2348 4.51672 68.6649 4.83934C69.1489 5.16197 69.5253 5.59213 69.7941 6.12984C70.063 6.61377 70.2243 7.25902 70.278 7.95803H67.3744C67.2669 6.66754 66.5679 6.0223 65.2774 6.0223ZM15.8085 1.02164H21.8308V2.47344H15.8085V1.02164ZM74.9023 12.3134C75.3325 12.7436 76.0315 12.9587 76.838 12.9587C77.4295 12.9587 77.9672 12.7974 78.3974 12.5285C78.8275 12.2059 79.0964 11.8833 79.2039 11.5607H81.7849C81.3548 12.8511 80.7095 13.7652 79.8492 14.3567C78.9889 14.8944 77.9672 15.217 76.7305 15.217C75.8702 15.217 75.1174 15.0557 74.4184 14.7869C73.7193 14.518 73.1816 14.1416 72.6977 13.6039C72.2138 13.12 71.8374 12.5285 71.6223 11.8295C71.3534 11.1305 71.2459 10.3777 71.2459 9.51738C71.2459 8.71082 71.3534 7.95803 71.6223 7.25902C71.8911 6.56 72.2675 5.96852 72.7515 5.43082C73.2354 4.94689 73.8269 4.51672 74.4721 4.24787C75.1711 3.97902 75.9239 3.81771 76.7305 3.81771C77.6446 3.81771 78.4512 3.97902 79.0964 4.35541C79.7954 4.7318 80.3331 5.16197 80.7633 5.80721C81.1934 6.39869 81.5161 7.09771 81.7312 7.85049C81.9462 8.60328 82 9.40984 81.9462 10.2702H74.1495C74.1495 11.0767 74.4721 11.8833 74.9023 12.3134ZM78.3436 6.66754C77.9672 6.29115 77.3757 6.07607 76.6767 6.07607C76.1928 6.07607 75.8164 6.18361 75.4938 6.34492C75.1711 6.50623 74.9023 6.72131 74.741 6.93639C74.5797 7.15148 74.4184 7.42033 74.3646 7.68918C74.3108 7.95803 74.2571 8.17312 74.2571 8.3882H79.0964C78.9351 7.58164 78.6662 7.04393 78.3436 6.66754Z" fill="black"/>
</svg>
