<svg width="60" height="16" viewBox="0 0 60 16" fill="none" xmlns="http://www.w3.org/2000/svg">
<g clip-path="url(#clip0_1_1158)">
<path d="M25.9065 10.4076L25.2599 12.4064C25.2513 12.4385 25.2318 12.4666 25.2049 12.486C25.178 12.5055 25.1452 12.5151 25.112 12.5133H23.549C23.455 12.5133 23.427 12.4603 23.442 12.3814L26.1404 4.60617C26.2298 4.34126 26.2744 4.06327 26.2723 3.78367C26.2709 3.76056 26.2786 3.73781 26.2937 3.72027C26.3088 3.70273 26.3302 3.69177 26.3532 3.68973H28.5089C28.5759 3.68973 28.6029 3.70272 28.6169 3.77068L31.675 12.3944C31.701 12.4613 31.688 12.5143 31.608 12.5143H29.8591C29.8271 12.5197 29.7941 12.5131 29.7667 12.4958C29.7392 12.4785 29.7191 12.4516 29.7102 12.4204L29.0226 10.4126L25.9065 10.4076ZM28.5229 8.72264C28.2591 7.83318 27.7154 6.20219 27.4656 5.24577H27.4526C27.2367 6.14522 26.753 7.62431 26.3952 8.72264H28.5229Z" fill="black"/>
<path d="M31.8868 9.22233C31.889 8.72636 31.9946 8.2363 32.1967 7.78337C32.3988 7.33044 32.693 6.92458 33.0606 6.59165C33.4282 6.25872 33.8612 6.00602 34.3319 5.84967C34.8026 5.69331 35.3007 5.63672 35.7944 5.68351C35.9013 5.68351 36.0363 5.6985 36.2381 5.71149V3.05012C36.2367 3.03744 36.2381 3.0246 36.2424 3.01255C36.2466 3.0005 36.2535 2.98955 36.2625 2.98053C36.2715 2.9715 36.2825 2.96463 36.2945 2.96041C36.3066 2.9562 36.3194 2.95475 36.3321 2.95618H38.031C38.098 2.95618 38.112 2.98217 38.112 3.03713V11.0012C38.1084 11.3299 38.1265 11.6584 38.166 11.9846C38.166 12.0516 38.153 12.0786 38.072 12.1066C37.232 12.4624 36.3289 12.6452 35.4166 12.6442C34.9511 12.6896 34.4813 12.6332 34.0397 12.4788C33.5982 12.3244 33.1956 12.0758 32.8597 11.7503C32.5239 11.4247 32.2629 11.03 32.0949 10.5934C31.9269 10.1569 31.8559 9.68905 31.8868 9.22233ZM36.2391 7.30851C36.078 7.25587 35.9087 7.23318 35.7394 7.24155C35.4852 7.22309 35.2299 7.25888 34.9905 7.34656C34.7511 7.43424 34.5331 7.57179 34.3509 7.75011C34.1687 7.92843 34.0265 8.14344 33.9337 8.38088C33.8409 8.61833 33.7996 8.87278 33.8126 9.12739C33.778 9.37632 33.7995 9.62984 33.8755 9.8694C33.9514 10.109 34.08 10.3285 34.2518 10.512C34.4236 10.6954 34.6342 10.8382 34.8682 10.9297C35.1023 11.0213 35.3539 11.0594 35.6045 11.0412C35.8185 11.0501 36.0323 11.0227 36.2371 10.9603L36.2391 7.30851Z" fill="black"/>
<path d="M45.8272 9.12639C45.8546 9.57758 45.7898 10.0296 45.6366 10.4549C45.4834 10.8802 45.2452 11.2698 44.9364 11.5999C44.6277 11.93 44.2548 12.1938 43.8407 12.375C43.4266 12.5562 42.9799 12.6511 42.5279 12.6539C42.0759 12.6566 41.6281 12.5673 41.2117 12.3912C40.7954 12.2151 40.4194 11.956 40.1066 11.6297C39.7937 11.3034 39.5507 10.9168 39.3923 10.4934C39.2339 10.0701 39.1635 9.61886 39.1853 9.16736C39.1588 8.71365 39.2263 8.25934 39.3837 7.83297C39.5411 7.40659 39.7849 7.01735 40.0998 6.68965C40.4147 6.36196 40.794 6.1029 41.2138 5.92872C41.6336 5.75455 42.0849 5.66902 42.5393 5.67751C42.9882 5.66535 43.4347 5.74752 43.8499 5.91872C44.265 6.08991 44.6397 6.34632 44.9496 6.67137C45.2594 6.99642 45.4977 7.38288 45.6489 7.80576C45.8 8.22865 45.8608 8.67855 45.8272 9.12639ZM41.0841 9.14138C41.0841 10.3306 41.6368 11.0812 42.5383 11.0812C43.3208 11.0812 43.9124 10.4076 43.9124 9.16736C43.9124 8.11001 43.4817 7.24055 42.4583 7.24055C41.6778 7.24055 41.0841 7.94112 41.0841 9.14138Z" fill="black"/>
<path d="M48.6605 2.95618C48.7685 2.95618 48.7925 2.96917 48.7925 3.06412V5.82642C49.1625 5.72814 49.5439 5.67974 49.9267 5.6825C50.3547 5.66131 50.7825 5.72955 51.1826 5.88286C51.5828 6.03617 51.9466 6.27119 52.2509 6.57293C52.5552 6.87467 52.7932 7.23651 52.9499 7.63537C53.1066 8.03424 53.1784 8.46137 53.1608 8.88953C53.165 9.40865 53.061 9.92295 52.8556 10.3997C52.6502 10.8765 52.3478 11.3053 51.9677 11.6588C51.5875 12.0124 51.138 12.2829 50.6476 12.4532C50.1572 12.6236 49.6367 12.69 49.1193 12.6482C48.4024 12.6533 47.689 12.5492 47.0036 12.3394C46.9797 12.3264 46.9597 12.3073 46.9455 12.2842C46.9313 12.2611 46.9234 12.2346 46.9226 12.2075V3.05012C46.9226 2.98317 46.9486 2.95618 47.0165 2.95618H48.6605ZM49.586 7.26753C49.3179 7.26409 49.0508 7.30046 48.7934 7.37546V11.0272C48.9572 11.0655 49.125 11.0836 49.2931 11.0812C49.5595 11.0964 49.8261 11.054 50.0746 10.9568C50.3231 10.8596 50.5476 10.7099 50.733 10.518C50.9184 10.3261 51.0602 10.0964 51.1487 9.84469C51.2372 9.59298 51.2704 9.32513 51.2459 9.05943C51.2776 8.82847 51.2578 8.59336 51.1878 8.37099C51.1178 8.14862 50.9994 7.9445 50.8412 7.77329C50.683 7.60208 50.4889 7.46803 50.2727 7.38075C50.0565 7.29348 49.8237 7.25516 49.5909 7.26853L49.586 7.26753Z" fill="black"/>
<path d="M55.7882 9.64707C55.8551 10.4146 56.3948 11.0462 57.715 11.0462C58.2826 11.057 58.8464 10.952 59.3719 10.7374C59.4129 10.7094 59.4529 10.7244 59.4529 10.8044V12.0836C59.4529 12.1835 59.4269 12.2155 59.359 12.2465C58.7125 12.5395 58.0063 12.6764 57.2972 12.6462C56.839 12.6861 56.3777 12.6254 55.9454 12.4684C55.5131 12.3114 55.1203 12.0619 54.7944 11.7374C54.4685 11.4129 54.2175 11.0211 54.0587 10.5894C53.9 10.1578 53.8374 9.69667 53.8753 9.23832C53.8375 8.78662 53.8937 8.33197 54.0402 7.90302C54.1867 7.47407 54.4204 7.08009 54.7266 6.74589C55.0329 6.41169 55.405 6.1445 55.8195 5.96115C56.2341 5.77779 56.682 5.68224 57.1353 5.68051C57.5179 5.66646 57.8992 5.73256 58.2547 5.87456C58.6103 6.01657 58.9322 6.23134 59.1998 6.5051C59.4675 6.77885 59.6749 7.10554 59.8089 7.4642C59.9428 7.82285 60.0003 8.20555 59.9776 8.58772C59.987 8.88906 59.9646 9.19055 59.9106 9.48716C59.909 9.51498 59.8972 9.54123 59.8775 9.56093C59.8578 9.58064 59.8315 9.59244 59.8037 9.5941C59.342 9.63828 58.8783 9.6563 58.4146 9.64807L55.7882 9.64707ZM57.5401 8.33987C57.765 8.34813 57.9901 8.33944 58.2137 8.31389V8.21395C58.2083 8.06911 58.1743 7.92677 58.1137 7.79512C58.053 7.66347 57.967 7.5451 57.8605 7.44683C57.7539 7.34856 57.629 7.27233 57.4929 7.22252C57.3568 7.17271 57.2122 7.15031 57.0674 7.1566C56.7404 7.15148 56.424 7.27195 56.1832 7.49321C55.9424 7.71446 55.7957 8.01964 55.7732 8.34587L57.5401 8.33987Z" fill="black"/>
<path d="M11.1366 0H17.6556V15.6094L11.1366 0Z" fill="black"/>
<path d="M6.54342 0H0.0184326V15.6094L6.54342 0Z" fill="black"/>
<path d="M8.83999 5.75246L12.9934 15.6084H10.2721L9.02988 12.4693H5.98975L8.83999 5.75246Z" fill="black"/>
</g>
<defs>
<clipPath id="clip0_1_1158">
<rect width="60" height="15.6094" fill="white"/>
</clipPath>
</defs>
</svg>
