<svg width="22" height="22" viewBox="0 0 22 22" fill="none" xmlns="http://www.w3.org/2000/svg">
<path d="M20 7.5H14.5V1.5C14.5 1.40107 14.4706 1.30436 14.4156 1.22212C14.3606 1.13989 14.2824 1.07582 14.191 1.03803C14.0996 1.00023 13.999 0.990414 13.902 1.00981C13.8049 1.02921 13.7159 1.07695 13.646 1.147L1.654 13.136C1.58395 13.2059 1.53621 13.2949 1.51681 13.392C1.49741 13.489 1.50723 13.5896 1.54503 13.681C1.58282 13.7724 1.64689 13.8506 1.72912 13.9056C1.81136 13.9606 1.90807 13.99 2.007 13.99H7.688C7.35449 15.1386 7.48558 16.3722 8.053 17.425C8.46698 18.2361 9.10649 18.9104 9.89461 19.3666C10.6827 19.8229 11.5859 20.0417 12.4954 19.9968C13.405 19.9519 14.2822 19.6452 15.0216 19.1136C15.7609 18.5819 16.3309 17.848 16.663 17H20C20.1326 17 20.2598 16.9473 20.3536 16.8536C20.4473 16.7598 20.5 16.6326 20.5 16.5V8C20.5 7.86739 20.4473 7.74022 20.3536 7.64645C20.2598 7.55268 20.1326 7.5 20 7.5ZM8.382 12.5H4.364L13 3.85V7.5H11.5C11.3674 7.5 11.2402 7.55268 11.1464 7.64645C11.0527 7.74022 11 7.86739 11 8V10.672C9.9425 10.9609 9.01752 11.6068 8.382 12.5ZM12.25 18.525C11.6023 18.525 10.9691 18.3329 10.4305 17.9731C9.89194 17.6132 9.47217 17.1017 9.2243 16.5033C8.97642 15.9049 8.91156 15.2464 9.03793 14.6111C9.1643 13.9758 9.47621 13.3922 9.93423 12.9342C10.3922 12.4762 10.9758 12.1643 11.6111 12.0379C12.2464 11.9116 12.9049 11.9764 13.5033 12.2243C14.1017 12.4722 14.6132 12.8919 14.9731 13.4305C15.3329 13.9691 15.525 14.6023 15.525 15.25C15.525 15.6801 15.4403 16.1059 15.2757 16.5033C15.1111 16.9006 14.8699 17.2617 14.5658 17.5658C14.2617 17.8699 13.9006 18.1111 13.5033 18.2757C13.1059 18.4403 12.6801 18.525 12.25 18.525Z" fill="black"/>
</svg>
